<?xml version="1.0" encoding="UTF-8"?>
<svg id="Layer_2" data-name="Layer 2" xmlns="http://www.w3.org/2000/svg" viewBox="0 0 50.26 39.09">
  <defs>
    <style>
      .cls-1 {
        fill: #fff;
      }
    </style>
  </defs>
  <g id="Layer_1-2" data-name="Layer 1">
    <g>
      <path class="cls-1" d="M44.71,0H5.54C2.49,0,0,2.49,0,5.54v28c0,3.06,2.49,5.54,5.54,5.54h39.17c3.06,0,5.55-2.49,5.55-5.54V5.54c0-3.06-2.49-5.54-5.55-5.54ZM44.71,35.05H5.54c-.83,0-1.5-.67-1.5-1.5V8.47h42.17v25.08c0,.83-.67,1.5-1.5,1.5Z"/>
      <path class="cls-1" d="M12.68,30.61c-.5,0-.99-.18-1.38-.55-.81-.76-.86-2.04-.09-2.86l5.65-6.02-5.59-5.54c-.79-.79-.8-2.07-.01-2.86.78-.79,2.06-.8,2.86-.01l6.99,6.93c.78.77.8,2.02.05,2.82l-6.99,7.46c-.4.42-.94.64-1.48.64Z"/>
      <path class="cls-1" d="M38.25,31.48h-11.32c-1.12,0-2.02-.91-2.02-2.02s.91-2.02,2.02-2.02h11.32c1.12,0,2.02.91,2.02,2.02s-.91,2.02-2.02,2.02Z"/>
    </g>
  </g>
</svg>