<?xml version="1.0" encoding="UTF-8"?>
<svg id="Layer_2" data-name="Layer 2" xmlns="http://www.w3.org/2000/svg" viewBox="0 0 51.64 44.65">
  <defs>
    <style>
      .cls-1 {
        fill: #fff;
      }
    </style>
  </defs>
  <g id="Layer_1-2" data-name="Layer 1">
    <g>
      <path class="cls-1" d="M36.4,27.48h-20.26s-.04,0-.05,0c-1.64-.07-3.07-1.06-3.93-2.74-1.19-2.31-1.05-5.3.35-7.43,1.22-1.86,3.26-2.92,5.82-3.03.61-2.5,2.5-3.78,3.37-4.25,1.64-.88,5.39-1.76,9.08.55,2.34,1.47,2.8,3.97,2.98,5.61,2.14,0,4.3.44,5.67,2.32.95,1.3.95,2.76.95,3.54v1.47c0,2.18-1.78,3.96-3.96,3.96ZM16.16,24.81h20.23c.71,0,1.29-.58,1.29-1.29v-1.47c0-.58,0-1.37-.44-1.97-.71-.97-2.09-1.33-4.63-1.18-.69.04-1.29-.45-1.4-1.13-.04-.23-.06-.5-.09-.78-.12-1.35-.29-3.2-1.79-4.14-3.31-2.08-6.36-.48-6.39-.46-.61.33-2.05,1.32-2.15,3.31-.02.36-.18.69-.45.93-.27.24-.62.36-.98.34-2.16-.15-3.77.48-4.65,1.82-.97,1.48-.84,3.51-.21,4.74.24.46.77,1.24,1.64,1.29Z"/>
      <path class="cls-1" d="M46.36,0H5.28C2.37,0,0,2.37,0,5.28v26.02c0,2.91,2.37,5.28,5.28,5.28h17.33v5.35h-3.6c-.75,0-1.36.61-1.36,1.36s.61,1.36,1.36,1.36h13.96c.75,0,1.36-.61,1.36-1.36s-.61-1.36-1.36-1.36h-3.16v-5.35h16.55c2.91,0,5.28-2.37,5.28-5.28V5.28c0-2.91-2.37-5.28-5.28-5.28ZM47.63,31.29c0,.7-.57,1.27-1.27,1.27H5.28c-.7,0-1.27-.57-1.27-1.27V5.28c0-.7.57-1.27,1.27-1.27h41.08c.7,0,1.27.57,1.27,1.27v26.02Z"/>
    </g>
  </g>
</svg>