<?xml version="1.0" encoding="UTF-8"?>
<svg id="Layer_2" data-name="Layer 2" xmlns="http://www.w3.org/2000/svg" viewBox="0 0 52.74 64.09">
  <defs>
    <style>
      .cls-1 {
        fill: #164197;
      }
    </style>
  </defs>
  <g id="Layer_1-2" data-name="Layer 1">
    <g>
      <path class="cls-1" d="M50.15,8.82c1.04.94,1.85,2.99,2.02,4.42,2.1,17.24-1.18,38.47-17.48,47.85-7.23,4.16-10.06,3.95-17.18-.32C1.71,51.29-1.53,30.2.57,13.23c.48-3.84,2.15-4.55,5.2-5.94C8.87,5.88,23.56.11,26.02,0c1.81-.08,22.83,7.65,24.13,8.81ZM46.01,12.95l-19.99-6.94L6.18,13.68c-1.48,14.65-.02,33.55,13.91,41.94,6.85,4.13,11.36,2.19,17.01-3.29,11.03-10.7,9.21-25.31,8.91-39.37Z"/>
      <path class="cls-1" d="M30.6,41.09c-1.53,1.17-8.25,1.31-8.59-.47-.16-2.4,1.97-7.3,1.58-9.23-.39-1.98-4.29-2.19-3.22-7.79,1.44-7.58,14.7-5.21,11.83,4.09-.49,1.59-2.79,2.39-3.05,3.7-.37,1.87,2.27,8.51,1.44,9.7Z"/>
    </g>
  </g>
</svg>